<svg width="316" height="316" viewBox="0 0 316 316" fill="none" xmlns="http://www.w3.org/2000/svg">
<path d="M147.447 25.1116C150.415 24.9878 156.486 29.2818 159.143 30.936L171.632 38.7091C176.292 41.6108 182.046 45.0017 186.451 48.286C186.555 48.3636 187.096 49.0108 187.103 49.0721C187.604 53.6411 187.357 61.8193 187.361 66.0409L187.466 79.8439C187.475 81.5066 187.189 87.9046 188.18 88.8957C188.926 88.9176 204.189 78.8935 207.15 79.4871C212.11 80.4816 221.655 87.5275 225.42 89.9915L234.122 95.6896C235.838 96.795 243.488 101.467 244.897 103.719C245.471 104.634 245.538 108.963 245.551 110.241C245.843 139.558 245.161 169.02 245.703 198.321C245.813 202.368 245.867 206.417 245.867 210.466C245.877 212.779 246.032 215.041 245.716 217.331C245.925 217.149 246.127 216.964 246.329 216.775C248.387 214.867 249.675 211.498 250.84 208.969C253.848 202.443 255.824 195.799 256.938 188.701C257.783 183.306 258.11 177.599 258.374 172.14C258.579 167.926 257.785 152.074 260.465 149.234C261.116 148.544 262.028 148.118 262.985 148.164C263.92 148.208 264.754 148.686 265.335 149.41C268.814 153.749 267.362 185.628 266.722 192.245C264.731 212.782 252.844 231.768 236.909 244.521C234.217 246.65 231.421 248.647 228.534 250.501C226.654 251.709 224.1 253.135 222.479 254.537C222.777 259.177 222.565 266.226 222.545 271.014C222.524 276.723 222.863 284.475 222.38 289.936C222.216 294.103 222.132 295.29 218.034 296.54C210.482 294.774 186.008 273.005 177.582 267.858C170.034 267.503 162.33 268.341 154.755 268.432C136.4 268.651 117.53 266.664 99.9471 261.241C78.9591 254.769 61.3139 242.029 50.9799 222.363C46.9929 214.777 43.9207 206.021 42.4017 197.575C41.5027 192.576 41.0652 187.385 40.8602 182.313C40.5747 175.238 40.4261 130.184 42.0771 125.463C42.3658 124.637 42.8455 124.153 43.4885 123.578C47.4967 119.992 52.6272 117.136 57.1158 114.19C64.3743 109.425 71.6789 104.126 79.4537 100.268C84.8411 102.04 92.5428 108.179 97.6954 110.944C98.8341 93.0041 97.6326 74.0455 98.365 56.0576C98.4331 54.3789 121.135 41.0175 124.307 39.0327L134.353 32.7299C137.583 30.6618 144.123 26.1706 147.447 25.1116ZM113.783 252.847C115.712 253.369 117.622 253.718 119.591 254.057C127.464 255.41 135.222 257.081 143.242 257.089C143.094 249.176 143.206 240.997 143.202 233.06L143.187 187.852C143.259 146.553 143.059 105.254 142.586 63.9579C142.561 61.6071 142.502 40.7651 142.083 40.019L141.776 39.9005C130.798 47.1345 119.334 53.5517 108.324 60.7231C107.882 61.0113 107.326 61.446 107.301 62.0012C106.943 66.2514 107.079 71.3038 107.075 75.5576L107.079 106.121L107.086 204.619L107.263 237.064C107.256 241.562 107.376 246.863 107.119 251.288C108.851 251.754 112.049 252.651 113.783 252.847ZM183.901 257.315L196.527 266.641C198.873 268.393 202.613 271.326 205.038 272.672C204.657 269.788 204.971 260.171 204.971 256.618L204.98 220.107C205.068 193.098 205.006 166.091 204.793 139.084C204.892 122.551 204.875 106.016 204.741 89.4831L204.26 89.3687C192.866 96.4793 180.813 102.731 169.28 109.619C168.811 109.899 168.521 110.185 168.469 110.759C168.209 113.736 168.331 117.214 168.323 120.21L168.275 141.334L168.254 221.404L168.465 243.164C168.529 246.504 168.817 253.586 168.525 256.631C169.942 256.663 171.251 256.638 172.668 256.577C176.9 256.401 180.011 254.814 183.901 257.315ZM49.3947 129.959C49.3367 142.49 49.2449 154.665 49.3979 167.149C49.6173 185.026 49.1038 200.016 58.5764 216.25C60.1618 218.968 62.5999 223.006 64.6556 225.363C67.3782 229.343 74.8386 236.417 79.1522 238.75C78.9477 235.613 79.1763 231.381 79.1868 228.136C79.2122 220.292 79.4539 212.442 79.4651 204.593C79.5476 180.571 79.3986 156.549 79.018 132.531C78.9907 129.517 79.0679 112.148 78.4448 110.489C78.0425 110.392 78.2035 110.372 77.9616 110.432C72.3676 113.595 65.4997 119.065 59.8962 122.718C57.8094 124.078 50.9513 128.642 49.3947 129.959Z" fill="#005E9E"/>
<path d="M119.957 70.1455C122.979 70.0599 126.074 70.0829 129.136 70.0018C128.846 73.0911 129.72 82.9948 128.509 84.5985C126.406 84.9627 121.598 84.7243 119.197 84.7094C119.203 80.5313 118.886 75.3434 119.166 71.0858C119.204 70.5196 119.573 70.3676 119.957 70.1455Z" fill="#005E9E"/>
<path d="M120.001 133.047C122.96 132.998 125.829 132.942 128.772 133.365C129.201 136.56 129.143 143.079 129.157 146.481C129.159 147.118 128.886 147.273 128.499 147.567C126.859 147.551 121.272 147.633 119.968 147.185C118.605 145.355 119.206 136.855 119.33 134.301C119.348 133.934 119.781 133.339 120.001 133.047Z" fill="#005E9E"/>
<path d="M119.547 101.796C123.038 102.159 125.529 102.085 129.026 102.006C128.91 104.617 129.546 114.537 128.857 116.03C125.641 116.015 122.425 116.047 119.209 116.124C119.117 113.836 118.762 103.465 119.547 101.796Z" fill="#005E9E"/>
<path d="M119.567 164.636C121.648 164.584 127.077 164.341 128.611 165.257C129.188 166.726 129.503 177.576 128.732 178.724L119.337 178.847C119.017 176.617 118.812 166.38 119.567 164.636Z" fill="#005E9E"/>
<path d="M181.68 180.973C184.518 180.907 187.281 180.9 190.107 181.216C190.528 184.478 190.462 189.219 190.53 192.58C190.554 193.677 190.507 194.137 189.789 194.812C188.114 194.887 182.979 195.105 181.62 194.573C181.104 193.137 181.024 182.1 181.68 180.973Z" fill="#005E9E"/>
<path d="M181.538 120.993C184.071 120.799 187.858 120.918 190.49 120.932C190.576 124.458 190.462 131.156 190.105 134.561C188.679 134.904 183.368 135.04 182.043 134.447C181.444 133.065 181.091 122.499 181.538 120.993Z" fill="#005E9E"/>
<path d="M181.581 149.303C184.002 149.834 188.488 149.772 190.103 150.389C190.797 151.687 190.795 162.09 189.789 163.247C187.081 163.369 184.041 163.335 181.308 163.359C181.474 158.978 180.936 153.478 181.581 149.303Z" fill="#005E9E"/>
<path d="M60.1246 141.131C62.7215 141.367 65.1674 141.423 67.7702 141.498C67.9949 143.524 68.1364 152.123 67.5455 153.848C65.9023 154.003 61.6053 153.71 59.7948 153.626C59.5606 150.678 59.0456 143.646 60.1246 141.131Z" fill="#005E9E"/>
<path d="M60.3813 167.915C62.1234 168.02 65.6251 167.797 67.2113 168.111C68.2084 168.308 67.9755 173.379 67.9478 174.54C67.914 175.94 68.3312 179.092 66.7978 179.797C64.4657 179.95 62.131 180.062 59.7949 180.13C59.2731 177.219 59.0641 172.056 59.4354 169.033C59.5178 168.364 59.924 168.194 60.3813 167.915Z" fill="#005E9E"/>
</svg>
