<svg width="397" height="111" viewBox="0 0 397 111" fill="none" xmlns="http://www.w3.org/2000/svg">
<path d="M357.714 92.276C326.927 97.7971 321.973 99.4636 311.677 94.4889C310.545 93.9417 309.524 95.1308 310.409 96.0251C322.107 107.852 341.314 102.127 356.373 98.4388C356.662 98.3682 356.963 98.4081 357.224 98.5488L378.008 109.742C378.871 110.207 379.897 109.499 379.769 108.527L377.726 93.056C377.659 92.5451 377.934 92.0457 378.391 91.8074C395.352 82.9604 397.895 64.6808 396.558 52.0123C396.414 50.6434 394.742 50.7807 394.596 52.1494C391.818 78.1209 379.801 86.2602 372.112 87.0012C371.327 87.0768 370.725 87.8041 370.899 88.573L372.985 97.7876C373.212 98.7882 372.161 99.5941 371.253 99.1158L358.496 92.3937C358.26 92.269 357.977 92.2287 357.714 92.276Z" fill="#005E9E"/>
<path d="M352.446 18.1273L353.162 22.4612C353.162 22.3607 353.765 21.8583 354.971 20.9538C356.177 20.0493 357.609 19.2327 359.268 18.5041C360.951 17.7504 362.722 17.3735 364.581 17.3735C369.832 17.3735 373.815 19.1825 376.528 22.8004C379.267 26.4184 380.636 31.4181 380.636 37.7997C380.636 45.0607 378.902 50.676 375.435 54.6457C371.993 58.5903 366.956 60.5625 360.323 60.5625C358.162 60.5625 355.976 60.3113 353.765 59.8088V69.6073L361.114 71.3786V77.5592H336.166V71.3786L342.195 69.6073V26.6068L336.015 24.6848V18.5041L352.446 18.1273ZM353.765 50.5379C355.524 51.3167 357.534 51.7061 359.795 51.7061C362.986 51.7061 365.26 50.6509 366.617 48.5405C367.973 46.43 368.652 43.3146 368.652 39.1942C368.652 35.124 368.049 32.0086 366.843 29.8478C365.637 27.6871 363.664 26.6068 360.926 26.6068C359.443 26.6068 358.175 26.9208 357.119 27.549C356.064 28.1771 355.235 28.868 354.632 29.6217C354.054 30.3503 353.765 30.7649 353.765 30.8654V50.5379Z" fill="#005E9E"/>
<path d="M315.739 54.7965C315.739 54.897 315.074 55.4623 313.742 56.4924C312.41 57.5225 310.815 58.4646 308.956 59.3189C307.097 60.148 305.187 60.5625 303.227 60.5625C299.459 60.5625 296.507 59.5199 294.371 57.4345C292.261 55.3241 291.205 52.3343 291.205 48.4651C291.205 44.0432 292.788 40.8147 295.954 38.7796C299.12 36.7445 303.73 35.727 309.785 35.727H315.212V31.4684C315.212 27.6997 313.227 25.8279 309.257 25.8531C308.076 25.8531 306.983 25.941 305.979 26.1169C304.974 26.2927 304.17 26.4812 303.567 26.6822C302.989 26.858 302.624 26.9711 302.474 27.0213L301.305 31.8829H294.371L293.843 20.4638C294.296 20.3131 295.401 19.9865 297.16 19.484C298.944 18.9815 301.067 18.5041 303.529 18.0519C306.016 17.5997 308.365 17.3735 310.576 17.3735C314.546 17.3735 317.699 17.876 320.036 18.881C322.372 19.8609 324.081 21.4688 325.161 23.7049C326.241 25.9159 326.782 28.8931 326.782 32.6367V51.7061L332.585 53.1006V59.2812L317.134 59.8088L315.739 54.7965ZM302.398 47.2968C302.398 48.8043 302.788 49.96 303.567 50.764C304.371 51.5428 305.501 51.9323 306.958 51.9323C308.189 51.9323 309.408 51.6056 310.614 50.9524C311.82 50.274 312.838 49.5831 313.667 48.8796C314.496 48.151 315.011 47.6737 315.212 47.4475V42.2845H310.802C307.813 42.2845 305.664 42.6865 304.358 43.4904C303.052 44.2944 302.398 45.5632 302.398 47.2968Z" fill="#005E9E"/>
<path d="M270.327 14.6601H254.122L252.2 21.5945H244.888V5.38916H285.779V14.1325L258.908 50.5379H276.508L278.203 42.8121H285.552V59.8088H242.929V51.7062L270.327 14.6601Z" fill="#005E9E"/>
<path d="M218.508 17.3735C224.713 17.3735 229.5 19.1825 232.866 22.8004C236.258 26.4184 237.954 31.5563 237.954 38.2143C237.954 42.787 237.1 46.7566 235.391 50.1233C233.708 53.49 231.321 56.0778 228.231 57.8868C225.141 59.6706 221.51 60.5625 217.339 60.5625C204.224 60.5625 197.667 53.49 197.667 39.3449C197.667 34.7722 198.521 30.8403 200.23 27.549C201.963 24.2576 204.4 21.7452 207.541 20.0116C210.681 18.2529 214.337 17.3735 218.508 17.3735ZM218.093 26.6068C215.179 26.6068 213.031 27.549 211.649 29.4333C210.292 31.3176 209.614 34.4959 209.614 38.968C209.614 43.2392 210.254 46.3672 211.536 48.352C212.842 50.3369 214.902 51.3293 217.716 51.3293C220.555 51.3293 222.641 50.3369 223.972 48.352C225.304 46.3672 225.97 43.1136 225.97 38.5912C225.97 34.5712 225.342 31.5689 224.085 29.584C222.829 27.5992 220.832 26.6068 218.093 26.6068Z" fill="#005E9E"/>
<path d="M176.299 55.701C175.168 56.8567 173.648 57.9622 171.738 59.0174C169.829 60.0475 167.467 60.5626 164.653 60.5626C159.352 60.5626 155.382 58.7662 152.744 55.1734C150.131 51.5806 148.825 46.518 148.825 39.9856C148.825 32.6241 150.584 27.0214 154.101 23.1773C157.619 19.3082 162.882 17.3736 169.892 17.3736C171.475 17.3736 173.409 17.6248 175.696 18.1273V8.32877L169.515 6.78361V0.602989L187.265 0V51.5554L193.446 53.1006V59.2812L176.977 59.8088L176.299 55.701ZM175.696 27.7751C174.037 26.9963 172.027 26.6068 169.666 26.6068C166.525 26.6068 164.251 27.7123 162.844 29.9233C161.463 32.1342 160.772 35.2748 160.772 39.3449C160.772 43.3146 161.362 46.3044 162.543 48.3144C163.749 50.3243 165.633 51.3293 168.196 51.3293C169.628 51.3293 170.909 51.0153 172.04 50.3872C173.171 49.7339 174.062 49.0179 174.716 48.239C175.369 47.4602 175.696 47.0205 175.696 46.92V27.7751Z" fill="#005E9E"/>
<path d="M112.495 23.4411C112.495 23.3406 113.299 22.7627 114.907 21.7075C116.54 20.6523 118.399 19.6976 120.485 18.8433C122.57 17.964 124.643 17.5243 126.703 17.5243C130.396 17.5243 133.273 18.7428 135.333 21.1799C137.393 23.617 138.423 26.9711 138.423 31.2423V51.7062L143.85 53.6282V59.8088H122.595V53.6282L126.854 51.7062V33.3527C126.854 31.5438 126.376 30.0614 125.422 28.9057C124.467 27.75 123.198 27.1721 121.615 27.1721C120.183 27.1721 118.851 27.4987 117.62 28.1519C116.414 28.7801 115.397 29.4835 114.568 30.2624C113.764 31.0161 113.362 31.4433 113.362 31.5438V51.7062L117.583 53.6282V59.8088H95.6113V53.6282L101.792 51.7062V26.6068L95.6113 24.6848V18.5041L111.967 18.1273L112.495 23.4411Z" fill="#005E9E"/>
<path d="M70.7758 17.3735C76.9816 17.3735 81.7678 19.1825 85.1345 22.8004C88.5263 26.4184 90.2222 31.5563 90.2222 38.2143C90.2222 42.787 89.3679 46.7566 87.6595 50.1233C85.9761 53.49 83.5893 56.0778 80.499 57.8868C77.4087 59.6706 73.7782 60.5625 69.6075 60.5625C56.4926 60.5625 49.9351 53.49 49.9351 39.3449C49.9351 34.7722 50.7893 30.8403 52.4978 27.549C54.2313 24.2576 56.6684 21.7452 59.809 20.0116C62.9495 18.2529 66.6052 17.3735 70.7758 17.3735ZM70.3613 26.6068C67.4468 26.6068 65.2987 27.549 63.9168 29.4333C62.5601 31.3176 61.8817 34.4959 61.8817 38.968C61.8817 43.2392 62.5224 46.3672 63.8038 48.352C65.1102 50.3369 67.1705 51.3293 69.9844 51.3293C72.8235 51.3293 74.9088 50.3369 76.2404 48.352C77.572 46.3672 78.2378 43.1136 78.2378 38.5912C78.2378 34.5712 77.6097 31.5689 76.3535 29.584C75.0972 27.5992 73.0998 26.6068 70.3613 26.6068Z" fill="#005E9E"/>
<path d="M34.2572 15.3385C34.0562 15.2883 33.5789 15.1626 32.8251 14.9617C32.0714 14.7607 31.0539 14.5722 29.7725 14.3964C28.4912 14.2205 27.1093 14.1325 25.627 14.1325C21.5066 14.1325 18.3534 15.7028 16.1676 18.8434C13.9818 21.9588 12.8889 26.6822 12.8889 33.0136C12.8889 39.0937 14.0195 43.5784 16.2807 46.4678C18.5419 49.3319 21.7829 50.764 26.0038 50.764C28.265 50.764 30.4886 50.3746 32.6744 49.5958C34.8602 48.7918 36.732 47.9124 38.2897 46.9577C39.8726 46.003 40.664 45.4753 40.664 45.3748L44.9226 52.3092C44.9226 52.4599 43.9427 53.2891 41.983 54.7965C40.0233 56.2789 37.5485 57.6482 34.5587 58.9044C31.5689 60.1355 28.2776 60.751 24.6848 60.751C16.8208 60.751 10.7407 58.427 6.44443 53.779C2.14814 49.1058 0 42.3222 0 33.4282C0 27.4485 1.06779 22.2854 3.20337 17.9389C5.33895 13.5924 8.35389 10.2634 12.2482 7.95192C16.1676 5.64047 20.7528 4.48474 26.0038 4.48474C28.7927 4.48474 31.5061 4.76111 34.1442 5.31385C36.7822 5.84146 39.0811 6.43189 41.0408 7.08512C43.0006 7.71324 43.9804 8.05242 43.9804 8.10266L43.6035 22.7628H36.0285L34.2572 15.3385Z" fill="#005E9E"/>
</svg>
