<svg width="425" height="168" viewBox="0 0 425 168" fill="none" xmlns="http://www.w3.org/2000/svg">
<path d="M372.032 142.449C328.716 150.215 323.093 152.369 308.03 144.698C306.909 144.127 305.84 145.335 306.675 146.276C322.407 163.996 349.305 155.894 370.228 150.777C370.516 150.706 370.817 150.746 371.078 150.887L400.079 166.506C400.942 166.97 401.968 166.262 401.84 165.291L398.927 143.229C398.86 142.718 399.136 142.218 399.594 141.982C424.072 129.407 426.591 102.418 424.105 85.214C423.908 83.8517 422.18 84.0146 422.063 85.3862C418.83 123.395 401.452 134.705 390.814 135.382C390.028 135.432 389.432 136.158 389.606 136.927L392.755 150.833C392.981 151.834 391.93 152.64 391.023 152.161L372.815 142.567C372.578 142.442 372.295 142.402 372.032 142.449Z" fill="#005E9E"/>
<path d="M38.5158 56.5297C38.3148 56.4794 37.8375 56.3538 37.0837 56.1528C36.33 55.9518 35.3125 55.7634 34.0311 55.5875C32.7498 55.4116 31.3679 55.3237 29.8856 55.3237C25.7652 55.3237 22.612 56.894 20.4262 60.0345C18.2404 63.15 17.1475 67.8734 17.1475 74.2047C17.1475 80.2849 18.2781 84.7696 20.5393 87.6589C22.8005 90.5231 26.0415 91.9552 30.2624 91.9552C32.5236 91.9552 34.7472 91.5658 36.933 90.7869C39.1188 89.9829 40.9906 89.1036 42.5483 88.1488C44.1312 87.1941 44.9226 86.6665 44.9226 86.566L49.1812 93.5003C49.1812 93.6511 48.2013 94.4802 46.2416 95.9877C44.2819 97.47 41.8071 98.8393 38.8173 100.096C35.8275 101.327 32.5362 101.942 28.9434 101.942C21.0794 101.942 14.9993 99.6182 10.703 94.9701C6.40674 90.297 4.2586 83.5134 4.2586 74.6193C4.2586 68.6397 5.32639 63.4766 7.46197 59.13C9.59755 54.7835 12.6125 51.4545 16.5068 49.1431C20.4262 46.8316 25.0114 45.6759 30.2624 45.6759C33.0513 45.6759 35.7647 45.9523 38.4028 46.505C41.0408 47.0326 43.3397 47.623 45.2994 48.2763C47.2592 48.9044 48.239 49.2436 48.239 49.2938L47.8621 63.9539H40.2871L38.5158 56.5297ZM75.0343 58.5647C81.24 58.5647 86.0262 60.3737 89.3929 63.9916C92.7847 67.6096 94.4806 72.7475 94.4806 79.4055C94.4806 83.9782 93.6264 87.9478 91.9179 91.3145C90.2346 94.6812 87.8478 97.269 84.7575 99.078C81.6671 100.862 78.0367 101.754 73.866 101.754C60.751 101.754 54.1935 94.6812 54.1935 80.5361C54.1935 75.9635 55.0477 72.0315 56.7562 68.7402C58.4898 65.4489 60.9269 62.9364 64.0674 61.2028C67.208 59.4441 70.8636 58.5647 75.0343 58.5647ZM74.6197 67.798C71.7053 67.798 69.5571 68.7402 68.1753 70.6245C66.8186 72.5088 66.1402 75.6871 66.1402 80.1592C66.1402 84.4304 66.7809 87.5584 68.0622 89.5432C69.3687 91.5281 71.4289 92.5205 74.2429 92.5205C77.0819 92.5205 79.1673 91.5281 80.4989 89.5432C81.8305 87.5584 82.4962 84.3048 82.4962 79.7824C82.4962 75.7625 81.8681 72.7601 80.6119 70.7752C79.3557 68.7904 77.3583 67.798 74.6197 67.798ZM116.753 64.6323C116.753 64.5318 117.557 63.9539 119.165 62.8987C120.799 61.8435 122.658 60.8888 124.743 60.0345C126.828 59.1552 128.901 58.7155 130.961 58.7155C134.655 58.7155 137.531 59.934 139.592 62.3711C141.652 64.8082 142.682 68.1623 142.682 72.4335V92.8974L148.109 94.8194V101H126.854V94.8194L131.112 92.8974V74.5439C131.112 72.735 130.635 71.2526 129.68 70.0969C128.725 68.9412 127.457 68.3633 125.874 68.3633C124.442 68.3633 123.11 68.6899 121.879 69.3431C120.673 69.9713 119.655 70.6747 118.826 71.4536C118.022 72.2073 117.62 72.6345 117.62 72.735V92.8974L121.841 94.8194V101H99.8698V94.8194L106.05 92.8974V67.798L99.8698 65.876V59.6953L116.226 59.3185L116.753 64.6323ZM180.557 96.8921C179.427 98.0479 177.906 99.1534 175.997 100.209C174.088 101.239 171.726 101.754 168.912 101.754C163.611 101.754 159.641 99.9573 157.003 96.3645C154.39 92.7717 153.083 87.7091 153.083 81.1768C153.083 73.8153 154.842 68.2125 158.36 64.3685C161.877 60.4993 167.141 58.5647 174.15 58.5647C175.733 58.5647 177.668 58.816 179.954 59.3185V49.5199L173.774 47.9748V41.7942L191.524 41.1912V92.7466L197.705 94.2918V100.472L181.235 101L180.557 96.8921ZM179.954 68.9663C178.296 68.1874 176.286 67.798 173.924 67.798C170.784 67.798 168.51 68.9035 167.103 71.1144C165.721 73.3254 165.03 76.4659 165.03 80.5361C165.03 84.5058 165.621 87.4956 166.801 89.5055C168.007 91.5155 169.892 92.5205 172.454 92.5205C173.887 92.5205 175.168 92.2064 176.299 91.5783C177.429 90.9251 178.321 90.209 178.974 89.4302C179.628 88.6513 179.954 88.2116 179.954 88.1111V68.9663ZM222.766 58.5647C228.972 58.5647 233.758 60.3737 237.125 63.9916C240.517 67.6096 242.213 72.7475 242.213 79.4055C242.213 83.9782 241.358 87.9478 239.65 91.3145C237.967 94.6812 235.58 97.269 232.489 99.078C229.399 100.862 225.769 101.754 221.598 101.754C208.483 101.754 201.925 94.6812 201.925 80.5361C201.925 75.9635 202.78 72.0315 204.488 68.7402C206.222 65.4489 208.659 62.9364 211.799 61.2028C214.94 59.4441 218.596 58.5647 222.766 58.5647ZM222.352 67.798C219.437 67.798 217.289 68.7402 215.907 70.6245C214.551 72.5088 213.872 75.6871 213.872 80.1592C213.872 84.4304 214.513 87.5584 215.794 89.5432C217.101 91.5281 219.161 92.5205 221.975 92.5205C224.814 92.5205 226.899 91.5281 228.231 89.5432C229.562 87.5584 230.228 84.3048 230.228 79.7824C230.228 75.7625 229.6 72.7601 228.344 70.7752C227.088 68.7904 225.09 67.798 222.352 67.798ZM274.586 55.8513H258.38L256.458 62.7857H249.147V46.5804H290.037V55.3237L263.166 91.7291H280.766L282.462 84.0033H289.811V101H247.187V92.8974L274.586 55.8513ZM319.998 95.9877C319.998 96.0882 319.332 96.6535 318.001 97.6836C316.669 98.7137 315.074 99.6558 313.214 100.51C311.355 101.339 309.446 101.754 307.486 101.754C303.717 101.754 300.765 100.711 298.63 98.6257C296.519 96.5153 295.464 93.5255 295.464 89.6563C295.464 85.2344 297.047 82.0059 300.212 79.9708C303.378 77.9357 307.989 76.9182 314.044 76.9182H319.47V72.6596C319.47 68.8909 317.486 67.0191 313.516 67.0443C312.335 67.0443 311.242 67.1322 310.237 67.3081C309.232 67.4839 308.428 67.6724 307.825 67.8734C307.247 68.0492 306.883 68.1623 306.732 68.2125L305.564 73.0741H298.63L298.102 61.6551C298.554 61.5043 299.66 61.1777 301.418 60.6752C303.202 60.1727 305.325 59.6953 307.788 59.2431C310.275 58.7909 312.624 58.5647 314.835 58.5647C318.805 58.5647 321.958 59.0672 324.294 60.0722C326.631 61.0521 328.339 62.66 329.42 64.8961C330.5 67.1071 331.04 70.0843 331.04 73.8279V92.8974L336.844 94.2918V100.472L321.392 101L319.998 95.9877ZM306.657 88.488C306.657 89.9955 307.046 91.1512 307.825 91.9552C308.629 92.734 309.76 93.1235 311.217 93.1235C312.448 93.1235 313.667 92.7969 314.873 92.1436C316.079 91.4653 317.096 90.7743 317.925 90.0708C318.754 89.3422 319.269 88.8649 319.47 88.6388V83.4757H315.061C312.071 83.4757 309.923 83.8777 308.617 84.6816C307.31 85.4856 306.657 86.7544 306.657 88.488ZM356.705 59.3185L357.421 63.6525C357.421 63.552 358.024 63.0495 359.23 62.145C360.436 61.2405 361.868 60.424 363.526 59.6953C365.21 58.9416 366.981 58.5647 368.84 58.5647C374.091 58.5647 378.073 60.3737 380.787 63.9916C383.525 67.6096 384.895 72.6093 384.895 78.991C384.895 86.2519 383.161 91.8672 379.694 95.8369C376.252 99.7815 371.214 101.754 364.581 101.754C362.421 101.754 360.235 101.502 358.024 101V110.799L365.373 112.57V118.75H340.424V112.57L346.454 110.799V67.798L340.273 65.876V59.6953L356.705 59.3185ZM358.024 91.7291C359.783 92.5079 361.793 92.8974 364.054 92.8974C367.245 92.8974 369.518 91.8421 370.875 89.7317C372.232 87.6212 372.91 84.5058 372.91 80.3854C372.91 76.3152 372.307 73.1998 371.101 71.0391C369.895 68.8783 367.923 67.798 365.184 67.798C363.702 67.798 362.433 68.112 361.378 68.7402C360.323 69.3683 359.494 70.0592 358.891 70.8129C358.313 71.5415 358.024 71.9561 358.024 72.0566V91.7291Z" fill="white"/>
</svg>
